<svg version="1.1" xmlns="http://www.w3.org/2000/svg" xmlns:xlink="http://www.w3.org/1999/xlink"
    width="1560" height="804">
    <defs />
    <g>
        <path fill="none" stroke="#02063B" paint-order="fill stroke markers"
            d=" M 20 424.87941842248347 L 21 425.66548209399264 L 22 426.402658559429 L 23 427.08942498914405 L 24 427.72436268852425 L 25 428.30616002867356 L 26 428.83361515592395 L 27 429.30563847457665 L 28 429.7212548977452 L 29 430.07960586165115 L 30 430.3799510992106 L 31 430.62167016924826 L 32 430.8042637381804 L 33 430.92735461151756 L 34 430.9906885130585 L 35 430.99413461016337 L 36 430.9376857840225 L 37 430.8214586443626 L 38 430.6456932885586 L 39 430.41075280565025 L 40 430.1171225262874 L 41 429.7654090201532 L 42 429.35633884293685 L 43 428.8907570354439 L 44 428.36962537794477 L 45 427.79402040336737 L 46 427.16513117343874 L 47 426.48425682236865 L 48 425.7528038731504 L 49 424.97228333202156 L 50 424.14430756708805 L 51 423.2705869775584 L 52 422.35292646046963 L 53 421.39322168220303 L 54 420.39345516249256 L 55 419.35569217901474 L 56 418.2820765010208 L 57 417.1748259608239 L 58 416.0362278722897 L 59 414.8686343057952 L 60 413.6744572294154 L 61 412.45616352637677 L 62 411.21626989906804 L 63 409.95733767013735 L 64 408.6819674914144 L 65 407.3927939715879 L 66 406.0924802337361 L 67 404.78371241395445 L 68 403.46919411244204 L 69 402.1516408085135 L 70 400.8337742510697 L 71 399.51831683611834 L 72 398.2079859829567 L 73 396.9054885206361 L 74 395.61351509630225 L 75 394.3347346169643 L 76 393.0717887361735 L 77 391.82728639700105 L 78 390.6037984425875 L 79 389.4038523053984 L 80 388.22992678615503 L 81 387.0844469332273 L 82 385.9697790330656 L 83 384.88822572202116 L 84 383.8420212296518 L 85 382.8333267633401 L 86 381.86422604375747 L 87 380.93672100039754 L 88 380.0527276360701 L 89 379.2140720688993 L 90 378.42248676000196 L 91 377.6796069346384 L 92 376.9869672042299 L 93 376.34599839621956 L 94 375.75802459832636 L 95 375.22426042329755 L 96 374.74580849981044 L 97 374.32365719470613 L 98 373.9586785712608 L 99 373.6516265877122 L 100 373.403135539763 L 101 373.2137187502783 L 102 373.0837675088832 L 103 373.0135502636531 L 104 373.0032120665637 L 105 373.052774273849 L 106 373.1621345018842 L 107 373.3310668386856 L 108 373.5592223105906 L 109 373.84612960315377 L 110 374.191196034769 L 111 374.59370878100765 L 112 375.0528363471429 L 113 375.56763028581776 L 114 376.13702715631035 L 115 376.75985072134665 L 116 377.43481437692475 L 117 378.16052381012963 L 118 378.93547987944925 L 119 379.75808171164095 L 120 380.62663000875153 L 121 381.53933055845863 L 122 382.49429794048314 L 123 383.4895594214147 L 124 384.5230590299057 L 125 385.59266180381434 L 126 386.6961582005242 L 127 387.83126866132903 L 128 388.99564832045377 L 129 390.18689184898443 L 130 391.4025384237005 L 131 392.64007681054494 L 132 393.89695055223115 L 133 395.17056324927006 L 134 396.45828392350836 L 135 397.7574524530979 L 136 399.0653850676689 L 137 400.3793798923555 L 138 401.6967225292208 L 139 403.0146916645513 L 140 404.33056469043817 L 141 405.6416233290316 L 142 406.9451592478503 L 143 408.23847965454667 L 144 409.5189128595692 L 145 410.7838137952321 L 146 412.0305694797902 L 147 413.2566044152319 L 148 414.45938590764035 L 149 415.6364292991308 L 150 416.7853031005577 L 151 417.90363401438753 L 152 418.9891118373621 L 153 420.0394942328237 L 154 421.05261136284486 L 155 422.02637037059236 L 156 422.9587597036672 L 157 423.8478532694894 L 158 424.69181441414247 L 159 425.48889971646014 L 160 426.23746258951553 L 161 426.9359566820749 L 162 427.582939072988 L 163 428.17707325191697 L 164 428.7171318802458 L 165 429.20199932646744 L 166 429.63067397081056 L 167 430.00227027434585 L 168 430.31602060829675 L 169 430.5712768397762 L 170 430.7675116706739 L 171 430.9043197269274 L 172 430.98141839592756 L 173 430.9986484103287 L 174 430.9559741770564 L 175 430.85348385083444 L 176 430.69138915207805 L 177 430.4700249295308 L 178 430.18984846854687 L 179 429.85143854644986 L 180 429.4554942369173 L 181 429.0028334658623 L 182 428.4943913217952 L 183 427.9312181241549 L 184 427.3144772536009 L 185 426.64544274874834 L 186 425.9254966743097 L 187 425.15612626608123 L 188 424.3389208586703 L 189 423.47556860231174 L 190 422.5678529755548 L 191 421.61764910102426 L 192 420.6269198718672 L 193 419.59771189688684 L 194 418.5321512727403 L 195 417.4324391919326 L 196 416.3008473956817 L 197 415.13971348104616 L 198 413.95143607201095 L 199 412.7384698645055 L 200 411.5033205555915 L 201 410.2485396672939 L 202 408.97671927576914 L 203 407.69048665669743 L 204 406.3924988579621 L 205 405.0854372108263 L 206 403.7720017909463 L 207 402.4549058406629 L 208 401.13687016409426 L 209 399.8206175066075 L 210 398.5088669302803 L 211 397.20432819697106 L 212 395.90969617060153 L 213 394.62764525021464 L 214 393.3608238453079 L 215 392.1118489048549 L 216 390.8833005113174 L 217 389.6777165508134 L 218 388.497587470454 L 219 387.34535113367747 L 220 386.2233877842083 L 221 385.1340151290449 L 222 384.0794835506334 L 223 383.06197145811757 L 224 382.08358078726826 L 225 381.1463326583887 L 226 380.25216320116493 L 227 379.4029195550867 L 228 378.6003560537006 L 229 377.8461306005778 L 230 377.14180124448336 L 231 376.48882296082155 L 232 375.8885446460056 L 233 375.3422063309616 L 234 374.8509366195221 L 235 374.41575035700185 L 236 374.0375465337704 L 237 373.71710642815424 L 238 373.45509199250296 L 239 373.2520444857547 L 240 373.10838335532515 L 241 373.02440537062984 L 242 373.0002840100296 L 243 373.0360691024661 L 244 373.1316867245271 L 245 373.28693935315465 L 246 373.5015062736799 L 247 373.77494424234317 L 248 374.10668840192875 L 249 374.4960534486247 L 250 374.94223504769565 L 251 375.44431149504567 L 252 376.00124562123744 L 253 376.61188693403557 L 254 377.2749739950474 L 255 377.9891370255518 L 256 378.7529007361335 L 257 379.56468737427673 L 258 380.42281998362336 L 259 381.3255258681622 L 260 382.2709402541934 L 261 383.25711014250373 L 262 384.2819983427937 L 263 385.34348768202415 L 264 386.4393853779874 L 265 387.5674275690691 L 266 388.72528399084297 L 267 389.91056278983785 L 268 391.12081546453277 L 269 392.35354192337365 L 270 393.6061956493623 L 271 394.876188960549 L 272 396.16089835556306 L 273 397.45766993313646 L 274 398.76382487442703 L 275 400.07666497681515 L 276 401.3934782277432 L 277 402.7115444070819 L 278 404.0281407064527 L 279 405.3405473538964 L 280 406.6460532322691 L 281 407.9419614797594 L 282 409.2255950609579 L 283 410.49430229696975 L 284 411.7454623431467 L 285 412.97649060312335 L 286 414.18484406797256 L 287 415.368026569452 L 288 416.52359393648834 L 289 417.64915904424794 L 290 418.7423967453642 L 291 419.8010486731338 L 292 420.82292790676007 L 293 421.8059234890067 L 294 422.7480047869289 L 295 423.6472256866732 L 296 424.5017286136822 L 297 425.309748369997 L 298 426.06961578073344 L 299 426.779761142196 L 300 427.43871746450935 L 301 428.04512350206716 L 302 428.59772656553884 L 303 429.09538510962517 L 304 429.53707109121655 L 305 429.92187209308383 L 306 430.2489932087128 L 307 430.51775868439086 L 308 430.72761331515125 L 309 430.8781235916939 L 310 430.9689785959114 L 311 430.999990643171 L 312 430.9710956700263 L 313 430.88235336655663 L 314 430.73394705306214 L 315 430.52618330136755 L 316 430.2594913015187 L 317 429.9344219751787 L 318 429.5516468375561 L 319 429.1119566102158 L 320 428.6162595876377 L 321 428.0655797608986 L 322 427.4610547023523 L 323 426.80393321567834 L 324 426.09557275615276 L 325 425.3374366264721 L 326 424.5310909539205 L 327 423.6782014551272 L 328 422.78052999509526 L 329 421.8399309476117 L 330 420.8583473645564 L 331 419.8378069620227 L 332 418.78041793154307 L 333 417.68836458507155 L 334 416.56390284271913 L 335 415.4093555725642 L 336 414.227107792165 L 337 413.0196017416855 L 338 411.7893318388135 L 339 410.5388395258922 L 340 409.2707080199103 L 341 407.9875569761961 L 342 406.69203707683783 L 343 405.38682455501083 L 344 404.0746156665223 L 345 402.7581211199935 L 346 401.4400604771869 L 347 400.12315653504373 L 348 398.8101297010395 L 349 397.50369237347473 L 350 396.2065433383112 L 351 394.9213621941277 L 352 393.6508038167131 L 353 392.3974928747292 L 354 391.16401840777627 L 355 389.95292847805746 L 356 388.76672490669506 L 357 387.6078581055678 L 358 386.47872201534796 L 359 385.38164916019497 L 360 384.31890582931993 L 361 383.29268739537633 L 362 382.3051137793469 L 363 381.3582250712954 L 364 380.45397731603083 L 365 379.5942384723878 L 366 378.78078455447195 L 367 378.0152959628413 L 368 377.299354013202 L 369 376.63443766978907 L 370 376.02192049018225 L 371 375.46306778786465 L 372 374.9590340183895 L 373 374.5108603945519 L 374 374.1194727354929 L 375 373.7856795541793 L 376 373.51017038721045 L 377 373.29351437040054 L 378 373.13615906308075 L 379 373.03842952354944 L 380 373.0005276375792 L 381 373.02253170136964 L 382 373.1043962598062 L 383 373.24595220035934 L 384 373.44690710243066 L 385 373.70684584142344 L 386 374.02523144629066 L 387 374.4014062087881 L 388 374.8345930421419 L 389 375.3238970863231 L 390 375.8683075566139 L 391 376.46669983164634 L 392 377.11783777659963 L 393 377.82037629675875 L 394 378.5728641161567 L 395 379.3737467755626 L 396 380.2213698436214 L 397 381.1139823345117 L 398 382.04974032506254 L 399 383.0267107638561 L 400 384.0428754644476 L 401 385.09613527445447 L 402 386.18431441190137 L 403 387.30516495986325 L 404 388.45637151012255 L 405 389.63555594624654 L 406 390.84028235620525 L 407 392.06806206438125 L 408 393.31635877257577 L 409 394.5825937993923 L 410 395.8641514071737 L 411 397.15838420548783 L 412 398.46261862000097 L 413 399.7741604154412 L 414 401.0903002612411 L 415 402.40831932836505 L 416 403.725494905757 L 417 405.0391060248082 L 418 406.3464390802256 L 419 407.64479343568865 L 420 408.9314870027158 L 421 410.20386178121606 L 422 411.4592893502786 L 423 412.6951762978598 L 424 413.9089695781504 L 425 415.0981617855547 L 426 416.26029633438935 L 427 417.39297253359945 L 428 418.49385054601004 L 429 419.56065622186844 L 430 420.59118579669143 L 431 421.58331044371397 L 432 422.53498067153447 L 433 423.44423055787183 L 434 424.30918181068904 L 435 425.1280476482943 L 436 425.8991364904022 L 437 426.6208554525336 L 438 427.2917136365317 L 439 427.91032521040063 L 440 428.4754122711012 L 441 428.9858074843921 L 442 429.44045649626224 L 443 429.838420110973 L 444 430.17887623121135 L 445 430.4611215563454 L 446 430.68457303527504 L 447 430.84876907087505 L 448 430.95337047354457 L 449 430.9981611618909 L 450 430.9830486091021 L 451 430.90806403408516 L 452 430.773362336975 L 453 430.57922177914827 L 454 430.3260434084018 L 455 430.0143502304845 L 456 429.6447861286928 L 457 429.218114533762 L 458 428.73521684680236 L 459 428.19709061853507 L 460 427.60484748859255 L 461 426.9597108891375 L 462 426.26301351754563 L 463 425.51619458337285 L 464 424.72079683529387 L 465 423.87846337415334 L 466 422.99093425871416 L 467 422.06004291111384 L 468 421.0877123294539 L 469 420.07595111534783 L 470 419.02684932463194 L 471 417.9425741498117 L 472 416.8253654431625 L 473 415.6775310897317 L 474 414.5014422398027 L 475 413.2995284106675 L 476 412.0742724678265 L 477 410.82820549598506 L 478 409.56390157043944 L 479 408.2839724396552 L 480 406.9910621300219 L 481 405.68784148392865 L 482 404.37700264244546 L 483 403.0612534840056 L 484 401.7433120305783 L 485 400.4259008328883 L 486 399.1117413462794 L 487 397.8035483088404 L 488 396.5040241334083 L 489 395.2158533250319 L 490 393.9416969354283 L 491 392.6841870658894 L 492 391.4459214299915 L 493 390.22945798734327 L 494 389.03730965945493 L 495 387.87193913864525 L 496 386.73575380071054 L 497 385.6311007318642 L 498 384.5602618802194 L 499 383.5254493418325 L 500 382.5288007910434 L 501 381.57237506455306 L 502 380.65814790836157 L 503 379.7880078963506 L 504 378.96375252894336 L 505 378.18708451990017 L 506 377.45960827892003 L 507 376.782826597316 L 508 376.15813754360846 L 509 375.5868315754511 L 510 375.0700888738555 L 511 374.60897690522023 L 512 374.20444821620134 L 513 373.85733846597975 L 514 373.5683646999898 L 515 373.3381238686758 L 516 373.16709159433515 L 517 373.0556211885975 L 518 373.0039429225671 L 519 373.0121635511383 L 520 373.08026609246554 L 521 373.2081098630436 L 522 373.39543076832626 L 523 373.64184184828184 L 524 373.9468340767601 L 525 374.30977741301797 L 526 374.7299221032325 L 527 375.20640022931224 L 528 375.7382275018079 L 529 376.3243052932179 L 530 376.96342290748925 L 531 377.654260081025 L 532 378.39538971003185 L 533 379.1852807985742 L 534 380.0223016212443 L 535 380.90472309391515 L 536 381.83072234561354 L 537 382.7983864841338 L 538 383.8057165476139 L 539 384.8506316339114 L 540 385.9309731992471 L 541 387.04450951723885 L 542 388.18894028911285 L 543 389.36190139556817 L 544 390.56096978048026 L 545 391.7836684563535 L 546 393.0274716211823 L 547 394.28980987615256 L 548 395.5680755334021 L 549 396.85962800287854 L 550 398.1617992471646 L 551 399.4718992930025 L 552 400.78722178813354 L 553 402.1050495919725 L 554 403.4226603885673 L 555 404.73733231025074 L 556 406.0463495603663 L 557 407.3470080234511 L 558 408.6366208512907 L 559 409.91252401330155 L 560 411.17208179977933 L 561 412.41269226664286 L 562 413.63179261042546 L 563 414.82686446241195 L 564 415.99543909098463 L 565 417.13510250142946 L 566 418.24350042267 L 567 419.318343170627 L 568 420.3574103781549 L 569 421.35855558178895 L 570 422.3197106558224 L 571 423.2388900845583 L 572 424.1141950639085 L 573 424.94381742386685 L 574 425.72604336375457 L 575 426.4592569925215 L 576 427.14194366678845 L 577 427.77269311973754 L 578 428.3502023743846 L 579 428.87327843521706 L 580 429.3408407526363 L 581 429.7519234551139 L 582 430.10567734445004 L 583 430.4013716500136 L 584 430.6383955383386 L 585 430.8162593749597 L 586 430.9345957358794 L 587 430.99316016657787 L 588 430.9918316869972 L 589 430.9306130414575 L 590 430.8096306929873 L 591 430.6291345620817 L 592 430.3894975104264 L 593 430.09121457065504 L 594 429.7349019237306 L 595 429.3212956260632 L 596 428.8512500889946 L 597 428.3257363137891 L 598 427.7458398857781 L 599 427.1127587318015 L 600 426.427800645578 L 601 425.6923805861175 L 602 424.90801775475535 L 603 424.0763324568468 L 604 423.1990427546052 L 605 422.27796091799786 L 606 421.31498968103097 L 607 420.3121183111583 L 608 419.2714184999315 L 609 418.1950400833831 L 610 417.0852066009811 L 611 415.9442107023297 L 612 414.7744094111062 L 613 413.578219256015 L 614 412.35811127882 L 615 411.11660592976494 L 616 409.8562678609282 L 617 408.5797006282673 L 618 407.2895413132972 L 619 405.98845507551226 L 620 404.6791296468072 L 621 403.3642697792677 L 622 402.0465916578014 L 623 400.72881728915263 L 624 399.41366887888887 L 625 398.103863207978 L 626 396.80210602057093 L 627 395.5110864345829 L 628 394.2334713866221 L 629 392.9719001227383 L 630 391.72897874637385 L 631 390.5072748347799 L 632 389.3093121350176 L 633 388.1375653505024 L 634 386.99445502886147 L 635 385.88234256166197 L 636 384.80352530634406 L 637 383.76023184043123 L 638 382.7546173578239 L 639 381.78875921668657 L 640 380.86465264812387 L 641 379.9842066345124 L 642 379.1492399660011 L 643 378.36147748332763 L 644 377.6225465147107 L 645 376.9339735141814 L 646 376.2971809082949 L 647 375.7134841577389 L 648 375.18408903990746 L 649 374.71008915805436 L 650 374.2924636821711 L 651 373.932075326257 L 652 373.6296685661588 L 653 373.3858681016624 L 654 373.2011775660132 L 655 373.0759784855304 L 656 373.0105294914653 L 657 373.0049657857313 L 658 373.0592988616092 L 659 373.1734164800045 L 660 373.34708290130703 L 661 373.57993937237177 L 662 373.8715048676173 L 663 374.2211770827089 L 664 374.62823367877456 L 665 375.09183377458425 L 666 375.61101968360833 L 667 376.18471889236804 L 668 376.8117462759913 L 669 377.49080654639585 L 670 378.22049692804364 L 671 378.99931005573876 L 672 379.8256370884815 L 673 380.6977710329485 L 674 381.6139102697305 L 675 382.57216227504637 L 676 383.5705475302421 L 677 384.60700361100237 L 678 385.6793894478231 L 679 386.7854897489481 L 680 387.92301957662943 L 681 389.0896290672606 L 682 390.2829082856311 L 683 391.50039220327375 L 684 392.7395657906219 L 685 393.9978692124574 L 686 395.2727031159149 L 687 396.5614340001217 L 688 397.8613996563786 L 689 399.16991466764307 L 690 400.4842759559578 L 691 401.80176836635985 L 692 403.11967027573945 L 693 404.4352592150607 L 694 405.74581749332816 L 695 407.04863781168496 L 696 408.34102885604244 L 697 409.6203208566886 L 698 410.8838711033918 L 699 412.1290694046063 L 700 413.35334347950055 L 701 414.55416427167313 L 702 415.7290511735753 L 703 416.87557715085126 L 704 417.991373756009 L 705 419.0741360210636 L 706 420.1216272190484 L 707 421.1316834845556 L 708 422.1022182837639 L 709 423.03122672471517 L 710 423.916789698941 L 711 424.7570778458799 L 712 425.5503553318972 L 713 426.29498343610055 L 714 426.98942393554444 L 715 427.6322422828291 L 716 428.22211056953125 L 717 428.7578102693445 L 718 429.2382347552617 L 719 429.6623915856015 L 720 430.02940455415376 L 721 430.33851550021205 L 722 430.5890858747512 L 723 430.78059805951665 L 724 430.91265643629936 L 725 430.98498820418814 L 726 430.99744394311074 L 727 430.94999792250013 L 728 430.84274815444735 L 729 430.6759161912323 L 730 430.4498466676498 L 731 430.16500658907677 L 732 429.8219843667513 L 733 429.4214886022562 L 734 428.96434662371826 L 735 428.451502776747 L 736 427.8840164736428 L 737 427.2630600049061 L 738 426.58991611756596 L 739 425.865975365333 L 740 425.09273323604884 L 741 424.2717870623673 L 742 423.40483272204864 L 743 422.4936611346829 L 744 421.54015456208003 L 745 420.54628271996876 L 746 419.51409870903655 L 747 418.4457347737161 L 748 417.3433978974807 L 749 416.2093652437457 L 750 415.0459794517955 L 751 413.8556437974531 L 752 412.6408172284885 L 753 411.4040092850239 L 754 410.1477749154251 L 755 408.87470919839194 L 756 407.58744198214833 L 757 406.2886324518073 L 758 404.98096363613183 L 759 403.66713686504283 L 760 402.3498661893188 L 761 401.0318727740187 L 762 399.71587927720833 L 763 398.404604225601 L 764 397.1007563987356 L 765 395.8070292332868 L 766 394.5260952590722 L 767 393.2606005782464 L 768 392.01315939908994 L 769 390.7863486356812 L 770 389.58270258461164 L 771 388.4047076897367 L 772 387.2547974057796 L 773 386.1353471713981 L 774 385.04866950209777 L 775 383.99700921313087 L 776 382.98253878224625 L 777 382.007353861872 L 778 381.0734689500001 L 779 380.1828132287178 L 780 379.33722657897937 L 781 378.5384557798547 L 782 377.7881509001025 L 783 377.0878618895242 L 784 376.43903537714004 L 785 375.8430116828 L 786 375.30102204840557 L 787 374.8141860944589 L 788 374.3835095071957 L 789 374.009881961079 L 790 373.69407528094496 L 791 373.43674184759817 L 792 373.2384132501496 L 793 373.09949918788095 L 794 373.02028662390416 L 795 373.0009391923647 L 796 373.04149686041245 L 797 373.14187584563956 L 798 373.30186878915435 L 799 373.5211451839354 L 800 373.79925205757934 L 801 374.13561490803346 L 802 374.5295388903789 L 803 374.9802102522135 L 804 375.48669801466906 L 805 376.04795589559 L 806 376.66282447090134 L 807 377.3300335697007 L 808 378.04820489812624 L 809 378.8158548865812 L 810 379.6313977544324 L 811 380.49314878585267 L 812 381.3993278100392 L 813 382.34806287861954 L 814 383.33739413264703 L 815 384.3652778511994 L 816 385.4295906732157 L 817 386.52813398385035 L 818 387.65863845628445 L 819 388.81876873960914 L 820 390.0061282831011 L 821 391.21826428692066 L 822 392.45267276900773 L 823 393.7068037377075 L 824 394.97806645944195 L 825 396.2638348105426 L 826 397.56145270219224 L 827 398.86823956726704 L 828 400.1814958977443 L 829 401.49850882123934 L 830 402.8165577051472 L 831 404.1329197768176 L 832 405.44487574814946 L 833 406.74971543298744 L 834 408.04474334571614 L 835 409.3272842694867 L 836 410.5946887825722 L 837 411.8443387314372 L 838 413.07365263921486 L 839 414.2800910384182 L 840 415.4611617168712 L 841 416.61442486601965 L 842 417.73749812099135 L 843 418.8280614819893 L 844 419.883862106855 L 845 420.9027189648992 L 846 421.8825273423884 L 847 422.8212631903777 L 848 423.71698730591027 L 849 424.5678493379455 L 850 425.3720916097398 L 851 426.12805274978547 L 852 426.8341711238046 L 853 427.48898806071145 L 854 428.09115086587633 L 855 428.6394156154685 L 856 429.1326497261038 L 857 429.5698342944905 L 858 429.95006620223853 L 859 430.2725599814857 L 860 430.5366494374855 L 861 430.7417890248057 L 862 430.8875549742944 L 863 430.97364616848506 L 864 430.9998847636332 L 865 430.9662165570987 L 866 430.8727110993155 L 867 430.7195615501174 L 868 430.5070842797156 L 869 430.23571821515435 L 870 429.9060239335926 L 871 429.51868250428646 L 872 429.0744940816634 L 873 428.57437625239504 L 874 428.01936213988404 L 875 427.41059827007814 L 876 426.74934220302356 L 877 426.0369599350473 L 878 425.2749230769368 L 879 424.46480581394474 L 880 423.60828165390114 L 881 422.70711997014683 L 882 421.76318234643344 L 883 420.77841873133804 L 884 419.7548634101367 L 885 418.6946308024605 L 886 417.5999110944113 L 887 416.47296571416325 L 888 415.31612266039457 L 889 414.13177169320164 L 890 412.9223593974271 L 891 411.6903841286042 L 892 410.4383908519529 L 893 409.16896588509286 L 894 407.8847315553322 L 895 406.5883407825677 L 896 405.2824715989904 L 897 403.96982161691295 L 898 402.65310245615024 L 899 401.33503414246377 L 900 400.01833948864123 L 901 398.7057384698182 L 902 397.39994260466347 L 903 396.1036493540314 L 904 394.81953654865555 L 905 393.5502568573931 L 906 392.298432307447 L 907 391.06664886788826 L 908 389.8574511076637 L 909 388.67333693912724 L 910 387.51675245795286 L 911 386.3900868900879 L 912 385.2956676561852 L 913 384.2357555637114 L 914 383.21254013666095 L 915 382.228135092525 L 916 381.2845739758586 L 917 380.38380595746526 L 918 379.52769180787834 L 919 378.7180000534558 L 920 377.95640332302867 L 921 377.24447489265185 L 922 376.5836854355932 L 923 375.9753999842754 L 924 375.4208751104466 L 925 374.9212563294053 L 926 374.4775757336399 L 927 374.09074986077394 L 928 373.76157780021884 L 929 373.4907395424475 L 930 373.27879457429674 L 931 373.1261807232021 L 932 373.0332132527511 L 933 373.00008421142473 L 934 373.0268620358711 L 935 373.1134914095318 L 936 373.2597933769126 L 937 373.4654657132629 L 938 373.7300835488989 L 939 374.05310024688293 L 940 374.433848532244 L 941 374.87154187040755 L 942 375.3652760919874 L 943 375.9140312605826 L 944 376.5166737797209 L 945 377.17195873459775 L 946 377.8785324637706 L 947 378.6349353554994 L 948 379.4396048629533 L 949 380.2908787320578 L 950 381.1869984353134 L 951 382.12611280448976 L 952 383.10628185469636 L 953 384.1254807919251 L 954 385.1816041957887 L 955 386.27247036881397 L 956 387.39582584330566 L 957 388.549350036469 L 958 389.73066004417734 L 959 390.93731556347996 L 960 392.1668239336822 L 961 393.416645285585 L 962 394.6841977882437 L 963 395.96686298241207 L 964 397.2619911896504 L 965 398.5669069859253 L 966 399.8789147283931 L 967 401.19530412395227 L 968 402.513355828057 L 969 403.83034706223106 L 970 405.14355723867465 L 971 406.4502735803456 L 972 407.7477967249064 L 973 409.0334463009575 L 974 410.30456646504274 L 975 411.55853138798346 L 976 412.792750679212 L 977 414.0046747378966 L 978 415.1918000198052 L 979 416.3516742090262 L 980 417.48190128386517 L 981 418.58014646645034 L 982 419.6441410458233 L 983 420.67168706455186 L 984 421.6606618591817 L 985 422.60902244515006 L 986 423.5148097371017 L 987 424.37615259588864 L 988 425.1912716938948 L 989 425.95848319069995 L 990 426.67620221148945 L 991 427.3429461210254 L 992 427.9573375864155 L 993 428.51810742235176 L 994 429.02409721294316 L 995 429.4742617047244 L 996 429.8676709658992 L 997 430.2035123073558 L 998 430.4810919614877 L 999 430.69983651535114 L 1000 430.8592940951986 L 1001 430.95913529994135 L 1002 430.9991538816132 L 1003 430.9792671714293 L 1004 430.8995162505598 L 1005 430.76006586526637 L 1006 430.5612040865756 L 1007 430.30334171519354 L 1008 429.98701143289026 L 1009 429.6128667021067 L 1010 429.18168041605867 L 1011 428.6943433021242 L 1012 428.15186208181547 L 1013 427.5553573911331 L 1014 426.90606146560145 L 1015 426.20531559476575 L 1016 425.45456735140954 L 1017 424.6553676012171 L 1018 423.8093672990572 L 1019 422.91831407850617 L 1020 421.98404864165667 L 1021 421.0085009566691 L 1022 419.99368627091997 L 1023 418.9417009479853 L 1024 417.8547181370561 L 1025 416.7349832837339 L 1026 415.58480949147923 L 1027 414.40657274329413 L 1028 413.202706993513 L 1029 411.9756991398359 L 1030 410.7280838859955 L 1031 409.462438505667 L 1032 408.1813775184399 L 1033 406.8875472888469 L 1034 405.5836205596115 L 1035 404.2722909304018 L 1036 402.9562672935006 L 1037 401.6382682378842 L 1038 400.32101643326916 L 1039 399.0072330057315 L 1040 397.6996319165124 L 1041 396.4009143556259 L 1042 395.1137631618486 L 1043 393.840837280619 L 1044 392.5847662712933 L 1045 391.34814487510846 L 1046 390.13352765506846 L 1047 388.94342371883056 L 1048 387.7802915354914 L 1049 386.6465338569789 L 1050 385.5444927545448 L 1051 384.47644478060676 L 1052 383.4445962659376 L 1053 382.4510787619155 L 1054 381.49794463725044 L 1055 380.58716283828295 L 1056 379.72061482161365 L 1057 378.90009066746563 L 1058 378.1272853818079 L 1059 377.40379539488043 L 1060 376.73111526335174 L 1061 376.1106345829242 L 1062 375.54363511776256 L 1063 375.0312881526768 L 1064 374.5746520735287 L 1065 374.174670180861 L 1066 373.83216874126464 L 1067 373.5478552805102 L 1068 373.32231712196983 L 1069 373.1560201733479 L 1070 373.04930796422735 L 1071 373.00240093642043 L 1072 373.0153959885884 L 1073 373.08826627607243 L 1074 373.2208612663481 L 1075 373.41290704998954 L 1076 373.66400690650045 L 1077 373.9736421238436 L 1078 374.3411730699753 L 1079 374.7658405141716 L 1080 375.2467671954169 L 1081 375.7829596346145 L 1082 376.3733101868762 L 1083 377.01659932965066 L 1084 377.7114981819641 L 1085 378.45657124956983 L 1086 379.25027939033447 L 1087 380.0909829937365 L 1088 380.9769453679079 L 1089 381.90633632722285 L 1090 382.87723597302164 L 1091 383.8876386596609 L 1092 384.93545713769595 L 1093 386.0185268656374 L 1094 387.13461048137395 L 1095 388.28140242402577 L 1096 389.45653369667997 L 1097 390.65757676016955 L 1098 391.88205054778655 L 1099 393.1274255905711 L 1100 394.3911292425861 L 1101 395.6705509953869 L 1102 396.9630478707053 L 1103 398.26594988020776 L 1104 399.5765655410516 L 1105 400.89218743584104 L 1106 402.2100978055028 L 1107 403.52757416352387 L 1108 404.8418949199549 L 1109 406.150345003562 L 1110 407.45022147051293 L 1111 408.73883908800906 L 1112 410.0135358813327 L 1113 411.27167863284785 L 1114 412.51066832159546 L 1115 413.7279454922479 L 1116 414.9209955423281 L 1117 416.08735391677567 L 1118 417.22461119912566 L 1119 418.33041808878494 L 1120 419.40249025412317 L 1121 420.4386130513542 L 1122 421.43664609945785 L 1123 422.39452770169385 L 1124 423.3102791045724 L 1125 424.18200858548363 L 1126 425.0079153605435 L 1127 425.7862933045798 L 1128 426.5155344755779 L 1129 427.1941324363032 L 1130 427.82068536623865 L 1131 428.39389895740925 L 1132 428.91258908811244 L 1133 429.37568426902845 L 1134 429.78222785666065 L 1135 430.13138002953116 L 1136 430.4224195230505 L 1137 430.6547451194774 L 1138 430.82787688988975 L 1139 430.9414571856032 L 1140 430.995251376987 L 1141 430.98914833815303 L 1142 430.92316067651456 L 1143 430.797424706743 L 1144 430.61220016917406 L 1145 430.3678696932468 L 1146 430.06493800708284 L 1147 429.7040308948396 L 1148 429.28589390398975 L 1149 428.81139080519966 L 1150 428.28150180798644 L 1151 427.69732153584005 L 1152 427.0600567649941 L 1153 426.3710239315158 L 1154 425.63164641186484 L 1155 424.84345158253944 L 1156 424.0080676648829 L 1157 423.1272203615694 L 1158 422.2027292917162 L 1159 421.236504231987 L 1160 420.23054117145244 L 1161 419.1869181883552 L 1162 418.10779115729923 L 1163 416.9953892957303 L 1164 415.8520105589079 L 1165 414.6800168928806 L 1166 413.4818293552732 L 1167 412.25992311396243 L 1168 411.0168223339742 L 1169 409.75509496316437 L 1170 408.4773474274546 L 1171 407.18621924658265 L 1172 405.88437758148757 L 1173 404.5745117245955 L 1174 403.2593275443869 L 1175 401.94154189572197 L 1176 400.62387700746984 L 1177 399.30905485903804 L 1178 397.9997915574159 L 1179 396.6987917263494 L 1180 395.4087429192376 L 1181 394.1323100672922 L 1182 392.87212997442987 L 1183 391.6308058702676 L 1184 390.4109020324754 L 1185 389.21493848959403 L 1186 388.04538581526094 L 1187 386.90466002459766 L 1188 385.7951175833031 L 1189 384.7190505397607 L 1190 383.6786817902163 L 1191 382.6761604868086 L 1192 381.71355759793585 L 1193 380.792861630133 L 1194 379.91597452029407 L 1195 379.084707706727 L 1196 378.3007783871569 L 1197 377.565805971408 L 1198 376.8813087360907 L 1199 376.24870068820775 L 1200 375.66928864415434 L 1201 375.1442695301492 L 1202 374.6747279096726 L 1203 374.2616337430179 L 1204 373.90584038358713 L 1205 373.6080828150672 L 1206 373.3689761331301 L 1207 373.18901427479295 L 1208 373.0685689980626 L 1209 373.0078891139726 L 1210 373.00709997260003 L 1211 373.0662032041214 L 1212 373.1850767154457 L 1213 373.36347494242926 L 1214 373.60102935715247 L 1215 373.89724922920965 L 1216 374.2515226394407 L 1217 374.66311774400884 L 1218 375.13118428621476 L 1219 375.6547553529224 L 1220 376.23274937197 L 1221 376.863972346438 L 1222 377.54712032116043 L 1223 378.28078207638333 L 1224 379.0634420430059 L 1225 379.89348343338287 L 1226 380.7691915812192 L 1227 381.6887574836595 L 1228 382.6502815382535 L 1229 383.65177746707917 L 1230 384.6911764199155 L 1231 385.7663312479916 L 1232 386.87502093947955 L 1233 388.0149552075725 L 1234 389.18377922166724 L 1235 390.3790784718789 L 1236 391.5983837568399 L 1237 392.8391762844757 L 1238 394.0988928752258 L 1239 395.3749312569573 L 1240 396.66465544063453 L 1241 397.96540116563943 L 1242 399.27448140349554 L 1243 400.58919190862247 L 1244 401.9068168046593 L 1245 403.22463419481284 L 1246 404.5399217846431 L 1247 405.8499625056712 L 1248 407.15205012818893 L 1249 408.44349485168124 L 1250 409.72162886130803 L 1251 410.98381183896925 L 1252 412.22743641756847 L 1253 413.44993356720795 L 1254 414.6487779021869 L 1255 415.82149289784303 L 1256 416.96565600645755 L 1257 418.0789036616577 L 1258 419.1589361609777 L 1259 420.2035224164917 L 1260 421.2105045637059 L 1261 422.17780241918933 L 1262 423.10341777773283 L 1263 423.98543854016174 L 1264 424.82204266327426 L 1265 425.6115019237446 L 1266 426.3521854882181 L 1267 427.04256328222135 L 1268 427.6812091509289 L 1269 428.26680380525715 L 1270 428.7981375471982 L 1271 429.27411276876626 L 1272 429.69374621939187 L 1273 430.056171037082 L 1274 430.36063853914857 L 1275 430.60651976880735 L 1276 430.79330679445155 L 1277 430.9206137589169 L 1278 430.9881776765696 L 1279 430.9958589765717 L 1280 430.94364179120106 L 1281 430.83163398862996 L 1282 430.6600669500957 L 1283 430.42929509192214 L 1284 430.13979513338097 L 1285 429.7921651119039 L 1286 429.38712314768077 L 1287 428.925505960196 L 1288 428.40826713976645 L 1289 427.83647517765314 L 1290 427.2113112588146 L 1291 426.53406682186176 L 1292 425.80614089125663 L 1293 425.0290371872629 L 1294 424.204361019621 L 1295 423.3338159713634 L 1296 422.41920037962115 L 1297 421.46240362069034 L 1298 420.465402207035 L 1299 419.4302557042863 L 1300 418.3591024766742 L 1301 417.2541552696805 L 1302 416.11769663903704 L 1303 414.9520742355143 L 1304 413.759695955238 L 1305 412.5430249655533 L 1306 411.3045746167127 L 1307 410.0469032498977 L 1308 408.77260891229895 L 1309 407.4843239901759 L 1310 406.18470977097724 L 1311 404.8764509457606 L 1312 403.5622500632649 L 1313 402.2448219470927 L 1314 400.9268880875373 L 1315 399.61117101963634 L 1316 398.30038869906787 L 1317 396.9972488875064 L 1318 395.70444355903726 L 1319 394.4246433391835 L 1320 393.1604919880357 L 1321 391.91460093887747 L 1322 390.68954390359096 L 1323 389.4878515559863 L 1324 388.3120063040361 L 1325 387.1644371618175 L 1326 386.04751473175094 L 1327 384.96354630750545 L 1328 383.9147711076831 L 1329 382.90335565013123 L 1330 381.9313892764357 L 1331 381.000879835844 L 1332 380.1137495375294 L 1333 379.2718309797689 L 1334 378.47686336423476 L 1335 377.7304889032209 L 1336 377.03424942722705 L 1337 376.38958319990684 L 1338 375.7978219469601 L 1339 375.2601881051072 L 1340 374.77779229682847 L 1341 374.3516310360842 L 1342 373.9825846697566 L 1343 373.6714155590639 L 1344 373.41876650470545 L 1345 373.2251594189894 L 1346 373.0909942476873 L 1347 373.0165481438423 L 1348 373.001974895237 L 1349 373.04730460670555 L 1350 373.15244363794346 L 1351 373.3171747969466 L 1352 373.5411577886773 L 1353 373.82392991803283 L 1354 374.1649070456618 L 1355 374.56338479465603 L 1356 375.0185400056246 L 1357 375.529432437143 L 1358 376.0950067080666 L 1359 376.71409447769474 L 1360 377.3854168592821 L 1361 378.10758706191183 L 1362 378.8791132552727 L 1363 379.6984016514229 L 1364 380.56375979717257 L 1365 381.4734000702864 L 1366 382.42544337228236 L 1367 383.4179230101974 L 1368 384.44878875930414 L 1369 385.51591109838205 L 1370 386.61708560879777 L 1371 387.7500375283048 L 1372 388.9124264501563 L 1373 390.1018511578236 L 1374 391.3158545853339 L 1375 392.5519288929777 L 1376 393.80752064790465 L 1377 395.0800360989027 L 1378 396.3668465344652 L 1379 397.66529371307905 L 1380 398.9726953545123 L 1381 400.2863506807622 L 1382 401.60354599521406 L 1383 402.92156028848717 L 1384 404.23767085938704 L 1385 405.54915893935316 L 1386 406.8533153087814 L 1387 408.147445893622 L 1388 409.4288773306899 L 1389 410.6949624901913 L 1390 411.94308594405913 L 1391 413.17066936879854 L 1392 414.3751768716855 L 1393 415.5541202293117 L 1394 416.7050640276577 L 1395 417.825630693073 L 1396 418.91350540377346 L 1397 419.9664408717066 L 1398 420.98226198490977 L 1399 421.9588703007696 L 1400 422.89424838090036 L 1401 423.78646395868805 L 1402 424.6336739308888 L 1403 425.4341281650382 L 1404 426.18617311480494 L 1405 426.88825523582045 L 1406 427.53892419492877 L 1407 428.13683586622716 L 1408 428.68075510770694 L 1409 429.1695583127607 L 1410 429.6022357312843 L 1411 429.97789355557734 L 1412 430.29575576673636 L 1413 430.5551657377229 L 1414 430.75558758979764 L 1415 430.8966072995174 L 1416 430.97793355400785 L 1417 430.99939835274625 L 1418 430.9609573546102 L 1419 430.8626899694756 L 1420 430.7047991941751 L 1421 430.4876111931552 L 1422 430.211574624699 L 1423 429.87725971410543 L 1424 429.4853570757412 L 1425 429.03667628639715 L 1426 428.53214421289624 L 1427 427.97280309741006 L 1428 427.35980840443625 L 1429 426.6944264338861 L 1430 425.97803170521297 L 1431 425.21210411798506 L 1432 424.3982258947678 L 1433 423.53807831263214 L 1434 422.6334382300394 L 1435 421.6861744162784 L 1436 420.69824369103657 L 1437 419.6716868820792 L 1438 418.60862460939086 L 1439 417.5112529044821 L 1440 416.38183867391604 L 1441 415.2227150164232 L 1442 414.03627640327966 L 1443 412.824973731904 L 1444 411.5913092628914 L 1445 410.3378314509441 L 1446 409.06712968037544 L 1447 407.7818289160636 L 1448 406.4845842809029 L 1449 405.1780755709593 L 1450 403.8650017196535 L 1451 402.5480752224124 L 1452 401.230016533305 L 1453 399.9135484452366 L 1454 398.60139046531276 L 1455 397.29625319699005 L 1456 396.0008327406199 L 1457 394.7178051239523 L 1458 393.44982077410526 L 1459 392.1994990424169 L 1460 390.96942279349656 L 1461 389.76213306964485 L 1462 388.5801238416706 L 1463 387.42583685694586 L 1464 386.30165659534146 L 1465 385.2099053434643 L 1466 384.1528383973704 L 1467 383.1326394036646 L 1468 382.1514158486108 L 1469 381.2111947045713 L 1470 380.31391824276744 L 1471 379.461440021015 L 1472 378.6555210547174 L 1473 377.89782617903114 L 1474 377.18992060971567 L 1475 376.5332667097733 L 1476 375.9292209685583 L 1477 375.37903119959554 L 1478 374.88383396289714 L 1479 374.44465221710215 L 1480 374.06239320628987 L 1481 373.73784658583065 L 1482 373.47168279114845 L 1483 373.26445165276124 L 1484 373.11658126046353 L 1485 373.02837707899556 L 1486 373.0000213170265 L 1487 373.0315725507549 L 1488 373.1229656029044 L 1489 373.2740116773645 L 1490 373.4843987491978 L 1491 373.75369220920857 L 1492 374.0813357617416 L 1493 374.46665257385473 L 1494 374.90884667349366 L 1495 375.4070045937792 L 1496 375.96009726001057 L 1497 376.5669821154866 L 1498 377.22640548175383 L 1499 377.93700514840526 L 1500 378.69731318708006 L 1501 379.5057589838512 L 1502 380.3606724837367 L 1503 381.26028764063346 L 1504 382.202746065543 L 1505 383.1861008655581 L 1506 384.2083206656762 L 1507 385.2672938051323 L 1508 386.3608326995836 L 1509 387.4866783601336 L 1510 388.6425050598609 L 1511 389.82592513821294 L 1512 391.0344939333395 L 1513 392.2657148321771 L 1514 393.5170444278538 L 1515 394.7858977737552 L 1516 396.06965372340517 L 1517 397.365660345125 L 1518 398.67124040028756 L 1519 399.98369687385025 L 1520 401.3003185457403 L 1521 402.61838559158485 L 1522 403.93517520121543 L 1523 405.24796720334007 L 1524 406.55404968476427 L 1525 407.85072459255395 L 1526 409.13531330756314 L 1527 410.4051621778197 L 1528 411.6576480003331 L 1529 412.89018344000215 L 1530 414.1002223744283 L 1531 415.28526515359357 L 1532 416.44286376353733 L 1533 417.5706268833657 L 1534 418.66622482514674 L 1535 419.7273943464859 L 1536 420.75194332584323 L 1537 421.7377552909282 L 1538 422.6827937908249 L 1539 423.5851066028105"
            stroke-linecap="round" stroke-linejoin="round" stroke-miterlimit="10" stroke-width="11" />
    </g>
</svg>